<svg width="700" height="480" viewBox="0 0 700 480" fill="none" xmlns="http://www.w3.org/2000/svg">
  <rect width="700" height="480" rx="40" fill="url(#paint0_linear)" />
  <g filter="url(#filter0_f)">
    <ellipse cx="520" cy="160" rx="140" ry="120" fill="#60A5FA" fill-opacity="0.35" />
  </g>
  <g filter="url(#filter1_f)">
    <ellipse cx="200" cy="360" rx="150" ry="130" fill="#34D399" fill-opacity="0.3" />
  </g>
  <rect x="136" y="128" width="428" height="232" rx="28" fill="white" fill-opacity="0.92" />
  <rect x="180" y="170" width="180" height="16" rx="8" fill="#0F172A" fill-opacity="0.5" />
  <rect x="180" y="202" width="260" height="14" rx="7" fill="#0F172A" fill-opacity="0.3" />
  <rect x="180" y="234" width="220" height="14" rx="7" fill="#0F172A" fill-opacity="0.2" />
  <rect x="180" y="266" width="184" height="14" rx="7" fill="#0F172A" fill-opacity="0.18" />
  <rect x="180" y="298" width="112" height="14" rx="7" fill="#0F172A" fill-opacity="0.15" />
  <rect x="404" y="274" width="120" height="44" rx="12" fill="#2563EB" fill-opacity="0.75" />
  <rect x="404" y="334" width="88" height="16" rx="8" fill="#0F172A" fill-opacity="0.25" />
  <defs>
    <filter id="filter0_f" x="280" y="-60" width="480" height="440" filterUnits="userSpaceOnUse" color-interpolation-filters="sRGB">
      <feGaussianBlur stdDeviation="60" />
    </filter>
    <filter id="filter1_f" x="-30" y="130" width="460" height="460" filterUnits="userSpaceOnUse" color-interpolation-filters="sRGB">
      <feGaussianBlur stdDeviation="60" />
    </filter>
    <linearGradient id="paint0_linear" x1="56" y1="40" x2="644" y2="440" gradientUnits="userSpaceOnUse">
      <stop stop-color="#ECFEFF" />
      <stop offset="1" stop-color="#ECFDF5" />
    </linearGradient>
  </defs>
</svg>
