<svg width="760" height="500" viewBox="0 0 760 500" fill="none" xmlns="http://www.w3.org/2000/svg">
  <rect width="760" height="500" rx="44" fill="url(#paint0_linear)" />
  <g filter="url(#filter0_f)">
    <circle cx="580" cy="120" r="140" fill="#34D399" fill-opacity="0.3" />
  </g>
  <g filter="url(#filter1_f)">
    <circle cx="200" cy="400" r="160" fill="#818CF8" fill-opacity="0.3" />
  </g>
  <rect x="112" y="112" width="192" height="128" rx="20" fill="white" fill-opacity="0.9" />
  <rect x="140" y="140" width="120" height="16" rx="8" fill="#0F172A" fill-opacity="0.55" />
  <rect x="140" y="172" width="96" height="14" rx="7" fill="#0F172A" fill-opacity="0.35" />
  <rect x="328" y="88" width="320" height="176" rx="26" fill="white" fill-opacity="0.88" />
  <rect x="360" y="124" width="208" height="16" rx="8" fill="#0F172A" fill-opacity="0.55" />
  <rect x="360" y="160" width="168" height="14" rx="7" fill="#0F172A" fill-opacity="0.3" />
  <rect x="272" y="288" width="256" height="128" rx="24" fill="white" fill-opacity="0.9" />
  <rect x="304" y="320" width="168" height="14" rx="7" fill="#0F172A" fill-opacity="0.4" />
  <rect x="304" y="352" width="132" height="14" rx="7" fill="#0F172A" fill-opacity="0.25" />
  <defs>
    <filter id="filter0_f" x="320" y="-140" width="520" height="520" filterUnits="userSpaceOnUse" color-interpolation-filters="sRGB">
      <feGaussianBlur stdDeviation="60" />
    </filter>
    <filter id="filter1_f" x="-40" y="160" width="480" height="480" filterUnits="userSpaceOnUse" color-interpolation-filters="sRGB">
      <feGaussianBlur stdDeviation="60" />
    </filter>
    <linearGradient id="paint0_linear" x1="64" y1="32" x2="696" y2="464" gradientUnits="userSpaceOnUse">
      <stop stop-color="#EEF2FF" />
      <stop offset="1" stop-color="#ECFDF5" />
    </linearGradient>
  </defs>
</svg>
