<svg width="720" height="480" viewBox="0 0 720 480" fill="none" xmlns="http://www.w3.org/2000/svg">
  <rect width="720" height="480" rx="40" fill="url(#paint0_linear)" />
  <g filter="url(#filter0_f)">
    <ellipse cx="540" cy="120" rx="120" ry="110" fill="#FCD34D" fill-opacity="0.45" />
  </g>
  <g filter="url(#filter1_f)">
    <ellipse cx="160" cy="340" rx="140" ry="130" fill="#38BDF8" fill-opacity="0.3" />
  </g>
  <rect x="120" y="120" width="188" height="232" rx="22" fill="white" fill-opacity="0.9" />
  <rect x="146" y="150" width="136" height="16" rx="8" fill="#0F172A" fill-opacity="0.55" />
  <rect x="146" y="184" width="108" height="14" rx="7" fill="#0F172A" fill-opacity="0.35" />
  <rect x="146" y="218" width="88" height="14" rx="7" fill="#0F172A" fill-opacity="0.2" />
  <rect x="312" y="96" width="288" height="128" rx="22" fill="white" fill-opacity="0.85" />
  <rect x="342" y="126" width="152" height="16" rx="8" fill="#0F172A" fill-opacity="0.55" />
  <rect x="342" y="160" width="184" height="14" rx="7" fill="#0F172A" fill-opacity="0.3" />
  <rect x="312" y="248" width="220" height="148" rx="22" fill="white" fill-opacity="0.9" />
  <rect x="342" y="280" width="160" height="14" rx="7" fill="#0F172A" fill-opacity="0.4" />
  <rect x="342" y="312" width="124" height="14" rx="7" fill="#0F172A" fill-opacity="0.25" />
  <rect x="342" y="344" width="96" height="14" rx="7" fill="#0F172A" fill-opacity="0.15" />
  <defs>
    <filter id="filter0_f" x="360" y="-70" width="360" height="380" filterUnits="userSpaceOnUse" color-interpolation-filters="sRGB">
      <feGaussianBlur stdDeviation="60" />
    </filter>
    <filter id="filter1_f" x="-40" y="140" width="400" height="400" filterUnits="userSpaceOnUse" color-interpolation-filters="sRGB">
      <feGaussianBlur stdDeviation="50" />
    </filter>
    <linearGradient id="paint0_linear" x1="52" y1="36" x2="660" y2="444" gradientUnits="userSpaceOnUse">
      <stop stop-color="#FFFBEB" />
      <stop offset="1" stop-color="#DBEAFE" />
    </linearGradient>
  </defs>
</svg>
